<svg width="36" height="37" viewBox="0 0 36 37" fill="none" xmlns="http://www.w3.org/2000/svg">
<path fill-rule="evenodd" clip-rule="evenodd" d="M1.5052 5.79621C1.74863 5.55278 2.07881 5.41602 2.42308 5.41602H33.5769C33.9212 5.41602 34.2514 5.55278 34.4948 5.79621C34.7382 6.03965 34.875 6.36982 34.875 6.71409V27.4833C34.875 28.7457 34.3735 29.9563 33.4809 30.8489C32.5883 31.7415 31.3777 32.2429 30.1154 32.2429H5.88462C4.62229 32.2429 3.41166 31.7415 2.51906 30.8489C1.62646 29.9563 1.125 28.7457 1.125 27.4833V6.71409C1.125 6.36982 1.26176 6.03965 1.5052 5.79621ZM5.31214 8.01217L17.9998 20.6998L30.6874 8.01217H5.31214ZM32.2788 9.60271V27.4833C32.2788 28.6776 31.3096 29.6468 30.1154 29.6468H5.88462C4.69038 29.6468 3.72115 28.6776 3.72115 27.4833V9.60316L17.2043 23.0863C17.6436 23.5256 18.3559 23.5256 18.7953 23.0863L32.2788 9.60271Z" fill="#871E35"/>
</svg>
