<svg width="49" height="48" viewBox="0 0 49 48" fill="none" xmlns="http://www.w3.org/2000/svg">
<g clip-path="url(#clip0_2077_17917)">
<circle cx="24.75" cy="24" r="22.5" fill="white" stroke="#871E35" stroke-width="3"/>
<path d="M14.0223 25.77C14.0223 21.61 15.1423 18.41 19.2223 18.41C23.3023 18.41 24.4223 21.61 24.4223 25.77C24.4223 30.01 23.3023 33.21 19.2223 33.21C15.1423 33.21 14.0223 30.01 14.0223 25.77ZM22.1823 25.77C22.1823 23.05 21.8823 20.49 19.2223 20.49C16.5623 20.49 16.2623 23.05 16.2623 25.77C16.2623 28.63 16.5623 31.13 19.2223 31.13C21.8823 31.13 22.1823 28.63 22.1823 25.77ZM26.6548 33.05V31.39C30.0948 28.37 33.7148 25.73 33.7148 22.87C33.7148 21.35 33.0548 20.31 31.3548 20.31C29.7548 20.31 28.8948 21.43 28.8348 23.07H26.6348C26.7148 19.91 28.7548 18.37 31.3348 18.37C34.2948 18.37 35.9748 20.15 35.9748 22.77C35.9748 26.31 32.3748 29.01 30.0348 31.15H36.3748V33.05H26.6548Z" fill="#871E35"/>
</g>
<defs>
<clipPath id="clip0_2077_17917">
<rect width="48" height="48" fill="white" transform="translate(0.75)"/>
</clipPath>
</defs>
</svg>
