<svg width="49" height="48" viewBox="0 0 49 48" fill="none" xmlns="http://www.w3.org/2000/svg">
<g clip-path="url(#clip0_2077_19760)">
<circle cx="24.75" cy="24" r="22.5" fill="white" stroke="#871E35" stroke-width="3"/>
<path d="M13.8563 25.77C13.8563 23.4633 14.2429 21.6633 15.0163 20.37C15.8029 19.0633 17.1496 18.41 19.0563 18.41C20.9629 18.41 22.3029 19.0633 23.0763 20.37C23.8629 21.6633 24.2563 23.4633 24.2563 25.77C24.2563 28.1033 23.8629 29.93 23.0763 31.25C22.3029 32.5567 20.9629 33.21 19.0563 33.21C17.1496 33.21 15.8029 32.5567 15.0163 31.25C14.2429 29.93 13.8563 28.1033 13.8563 25.77ZM22.0163 25.77C22.0163 24.69 21.9429 23.7767 21.7963 23.03C21.6629 22.2833 21.3829 21.6767 20.9563 21.21C20.5296 20.73 19.8963 20.49 19.0563 20.49C18.2163 20.49 17.5829 20.73 17.1563 21.21C16.7296 21.6767 16.4429 22.2833 16.2963 23.03C16.1629 23.7767 16.0963 24.69 16.0963 25.77C16.0963 26.89 16.1629 27.83 16.2963 28.59C16.4296 29.35 16.7096 29.9633 17.1363 30.43C17.5763 30.8967 18.2163 31.13 19.0563 31.13C19.8963 31.13 20.5296 30.8967 20.9563 30.43C21.3963 29.9633 21.6829 29.35 21.8163 28.59C21.9496 27.83 22.0163 26.89 22.0163 25.77ZM26.6288 22.27C26.7088 21.03 27.1821 20.0633 28.0488 19.37C28.9288 18.6767 30.0488 18.33 31.4088 18.33C32.3421 18.33 33.1488 18.4967 33.8288 18.83C34.5088 19.1633 35.0221 19.6167 35.3688 20.19C35.7154 20.7633 35.8888 21.41 35.8888 22.13C35.8888 22.9567 35.6688 23.6633 35.2288 24.25C34.7888 24.8367 34.2621 25.23 33.6488 25.43V25.51C34.4354 25.75 35.0488 26.19 35.4888 26.83C35.9288 27.4567 36.1488 28.2633 36.1488 29.25C36.1488 30.0367 35.9688 30.7367 35.6088 31.35C35.2488 31.9633 34.7154 32.45 34.0088 32.81C33.3021 33.1567 32.4554 33.33 31.4688 33.33C30.0288 33.33 28.8421 32.9633 27.9088 32.23C26.9888 31.4833 26.4954 30.4167 26.4288 29.03H28.6288C28.6821 29.7367 28.9554 30.3167 29.4488 30.77C29.9421 31.21 30.6088 31.43 31.4488 31.43C32.2621 31.43 32.8888 31.21 33.3288 30.77C33.7688 30.3167 33.9888 29.7367 33.9888 29.03C33.9888 28.0967 33.6888 27.4367 33.0888 27.05C32.5021 26.65 31.5954 26.45 30.3688 26.45H29.8488V24.57H30.3888C31.4688 24.5567 32.2888 24.3767 32.8488 24.03C33.4221 23.6833 33.7088 23.1367 33.7088 22.39C33.7088 21.75 33.5021 21.2433 33.0888 20.87C32.6754 20.4833 32.0888 20.29 31.3288 20.29C30.5821 20.29 30.0021 20.4833 29.5888 20.87C29.1754 21.2433 28.9288 21.71 28.8488 22.27H26.6288Z" fill="#871E35"/>
</g>
<defs>
<clipPath id="clip0_2077_19760">
<rect width="48" height="48" fill="white" transform="translate(0.75)"/>
</clipPath>
</defs>
</svg>
