<svg width="49" height="48" viewBox="0 0 49 48" fill="none" xmlns="http://www.w3.org/2000/svg">
<g clip-path="url(#clip0_2077_11499)">
<circle cx="24.75" cy="24" r="22.5" fill="white" stroke="#A3AAB2" stroke-width="3"/>
<path d="M13.8563 25.77C13.8563 21.61 14.9763 18.41 19.0563 18.41C23.1363 18.41 24.2563 21.61 24.2563 25.77C24.2563 30.01 23.1363 33.21 19.0563 33.21C14.9763 33.21 13.8563 30.01 13.8563 25.77ZM22.0163 25.77C22.0163 23.05 21.7163 20.49 19.0563 20.49C16.3963 20.49 16.0963 23.05 16.0963 25.77C16.0963 28.63 16.3963 31.13 19.0563 31.13C21.7163 31.13 22.0163 28.63 22.0163 25.77ZM26.6288 22.27C26.7887 19.75 28.7488 18.33 31.4088 18.33C34.3088 18.33 35.8888 20.01 35.8888 22.13C35.8888 23.87 34.7888 25.05 33.6488 25.43V25.51C35.1688 25.97 36.1488 27.23 36.1488 29.25C36.1488 31.57 34.5088 33.33 31.4688 33.33C28.7088 33.33 26.5688 31.89 26.4288 29.03H28.6288C28.7288 30.39 29.7288 31.43 31.4488 31.43C33.1488 31.43 33.9888 30.39 33.9888 29.03C33.9888 27.11 32.7488 26.45 30.3688 26.45H29.8488V24.57H30.3888C32.4488 24.55 33.7088 23.95 33.7088 22.39C33.7088 21.13 32.8888 20.29 31.3288 20.29C29.7288 20.29 28.9888 21.25 28.8488 22.27H26.6288Z" fill="#898886"/>
</g>
<defs>
<clipPath id="clip0_2077_11499">
<rect width="48" height="48" fill="white" transform="translate(0.75)"/>
</clipPath>
</defs>
</svg>
