<svg width="49" height="48" viewBox="0 0 49 48" fill="none" xmlns="http://www.w3.org/2000/svg">
<g clip-path="url(#clip0_9247_358)">
<circle cx="24.75" cy="24" r="22.5" fill="white" stroke="#871E35" stroke-width="3"/>
<path d="M15.7977 25.77C15.7977 21.61 16.9177 18.41 20.9977 18.41C25.0777 18.41 26.1977 21.61 26.1977 25.77C26.1977 30.01 25.0777 33.21 20.9977 33.21C16.9177 33.21 15.7977 30.01 15.7977 25.77ZM23.9577 25.77C23.9577 23.05 23.6577 20.49 20.9977 20.49C18.3377 20.49 18.0377 23.05 18.0377 25.77C18.0377 28.63 18.3377 31.13 20.9977 31.13C23.6577 31.13 23.9577 28.63 23.9577 25.77ZM30.1702 33.25V20.75H28.3102V18.67H32.4702V33.25H30.1702Z" fill="#871E35"/>
</g>
<defs>
<clipPath id="clip0_9247_358">
<rect width="48" height="48" fill="white" transform="translate(0.75)"/>
</clipPath>
</defs>
</svg>
